<svg width="585" height="580" viewBox="0 0 285 280" fill="none" xmlns="http://www.w3.org/2000/svg">
<g clip-path="url(#clip0_213_374)">
<path opacity="0.348656" d="M170.825 211.837L188.241 259.475L187.248 259.837L169.832 212.198L170.825 211.837ZM187.205 188.077L207.814 212.548L207.004 213.226L186.396 188.755L187.205 188.077ZM142.008 236.488H143.065V204.488H142.008V236.488ZM142.008 280H143.065V248.507H142.008V280ZM114.175 211.838L115.168 212.198L97.8255 259.836L96.8319 259.476L114.175 211.838ZM97.7948 188.077L98.6043 188.755L77.9957 213.226L77.1862 212.548L97.7948 188.077ZM43.2149 153.75L43.0308 152.712L74.5964 147.137L74.7805 148.175L43.2149 153.75ZM0.184448 161.352L-9.15527e-05 160.313L31.1303 154.811L31.3149 155.85L0.184448 161.352ZM28.2934 202.122L27.7654 201.208L71.8122 175.868L72.3403 176.782L28.2934 202.122ZM49.9854 246.602L49.1763 245.923L69.4947 221.814L70.3037 222.493L49.9854 246.602ZM62.3332 122.184L12.2634 113.352L12.4475 112.313L62.5173 121.146L62.3332 122.184ZM82.6243 101.85L54.8319 85.85L55.36 84.9365L83.1524 100.937L82.6243 101.85ZM44.3822 79.841L17.0254 64.0578L17.5544 63.1451L44.9112 78.9283L44.3822 79.841ZM89.812 73.9311L57.1582 35.0532L57.9685 34.376L90.6224 73.254L89.812 73.9311ZM118.456 71.3834L107.499 41.2658L108.492 40.906L119.45 71.0235L118.456 71.3834ZM103.363 29.9717L92.5509 0.360796L93.544 3.05176e-05L104.356 29.611L103.363 29.9717ZM241.858 153.75L210.22 148.175L210.404 147.137L242.042 152.712L241.858 153.75ZM284.816 161.352L253.686 155.85L253.87 154.811L285 160.313L284.816 161.352ZM256.706 202.122L212.66 176.782L213.188 175.868L257.234 201.208L256.706 202.122ZM235.014 246.601L214.768 222.492L215.579 221.815L235.824 245.924L235.014 246.601ZM222.667 122.184L222.483 121.146L272.552 112.313L272.737 113.352L222.667 122.184ZM202.449 101.85L201.92 100.937L229.639 84.937L230.168 85.8496L202.449 101.85ZM240.618 79.841L240.089 78.9283L267.445 63.1451L267.974 64.0578L240.618 79.841ZM195.188 73.9313L194.377 73.2537L227.032 34.3758L227.842 35.053L195.188 73.9313ZM166.544 71.3834L165.551 71.0235L176.508 40.906L177.501 41.2658L166.544 71.3834ZM181.637 29.9717L180.644 29.611L191.456 3.05176e-05L192.449 0.360796L181.637 29.9717ZM142.008 54.6242H143.065V3.87306H142.008V54.6242Z" fill="#A8D9FF"/>
<path opacity="0.348656" d="M170.825 211.837L188.241 259.475L187.248 259.837L169.832 212.198L170.825 211.837ZM187.205 188.077L207.814 212.548L207.004 213.226L186.396 188.755L187.205 188.077ZM142.008 236.488H143.065V204.488H142.008V236.488ZM142.008 280H143.065V248.507H142.008V280ZM114.175 211.838L115.168 212.198L97.8255 259.836L96.8319 259.476L114.175 211.838ZM97.7948 188.077L98.6043 188.755L77.9957 213.226L77.1862 212.548L97.7948 188.077ZM43.2149 153.75L43.0308 152.712L74.5964 147.137L74.7805 148.175L43.2149 153.75ZM0.184448 161.352L-9.15527e-05 160.313L31.1303 154.811L31.3149 155.85L0.184448 161.352ZM28.2934 202.122L27.7654 201.208L71.8122 175.868L72.3403 176.782L28.2934 202.122ZM49.9854 246.602L49.1763 245.923L69.4947 221.814L70.3037 222.493L49.9854 246.602ZM62.3332 122.184L12.2634 113.352L12.4475 112.313L62.5173 121.146L62.3332 122.184ZM82.6243 101.85L54.8319 85.85L55.36 84.9365L83.1524 100.937L82.6243 101.85ZM44.3822 79.841L17.0254 64.0578L17.5544 63.1451L44.9112 78.9283L44.3822 79.841ZM89.812 73.9311L57.1582 35.0532L57.9685 34.376L90.6224 73.254L89.812 73.9311ZM118.456 71.3834L107.499 41.2658L108.492 40.906L119.45 71.0235L118.456 71.3834ZM103.363 29.9717L92.5509 0.360796L93.544 3.05176e-05L104.356 29.611L103.363 29.9717ZM241.858 153.75L210.22 148.175L210.404 147.137L242.042 152.712L241.858 153.75ZM284.816 161.352L253.686 155.85L253.87 154.811L285 160.313L284.816 161.352ZM256.706 202.122L212.66 176.782L213.188 175.868L257.234 201.208L256.706 202.122ZM235.014 246.601L214.768 222.492L215.579 221.815L235.824 245.924L235.014 246.601ZM222.667 122.184L222.483 121.146L272.552 112.313L272.737 113.352L222.667 122.184ZM202.449 101.85L201.92 100.937L229.639 84.937L230.168 85.8496L202.449 101.85ZM240.618 79.841L240.089 78.9283L267.445 63.1451L267.974 64.0578L240.618 79.841ZM195.188 73.9313L194.377 73.2537L227.032 34.3758L227.842 35.053L195.188 73.9313ZM166.544 71.3834L165.551 71.0235L176.508 40.906L177.501 41.2658L166.544 71.3834ZM181.637 29.9717L180.644 29.611L191.456 3.05176e-05L192.449 0.360796L181.637 29.9717ZM142.008 54.6242H143.065V3.87306H142.008V54.6242Z" fill="#A8D9FF"/>
<path fill-rule="evenodd" clip-rule="evenodd" d="M86.9116 124.819C86.9116 123.137 88.206 121.906 89.9514 121.906C91.6065 121.906 92.8107 123.137 92.8107 124.819C92.8107 126.501 91.6065 127.762 89.9514 127.762C88.206 127.762 86.9116 126.501 86.9116 124.819ZM87.0318 129.774L92.6904 128.903V144.067H87.0318V129.774ZM112.735 133.648V144.068H107.076V132.356C107.076 131.246 106.354 130.405 105.391 130.405C104.307 130.405 103.254 131.275 102.682 132.627V144.068H97.024V129.774L102.682 128.903V131.366C103.706 129.804 105.571 128.753 107.709 128.753C110.568 128.753 112.735 130.855 112.735 133.648ZM116.888 144.428H116.225C116.225 147.822 119.928 150.404 124.442 150.404C129.499 150.404 132.869 147.702 132.869 143.918C132.869 140.079 129.388 138.697 126.141 137.407L126.128 137.402L126.103 137.392C123.404 136.315 120.921 135.323 120.921 133.078C120.921 131.066 122.937 129.684 125.707 129.684C128.866 129.684 131.395 131.636 131.395 134.429H132.057C132.057 131.186 128.806 128.783 124.653 128.783C119.958 128.783 116.496 131.336 116.496 135.3C116.496 139.297 120.008 140.784 123.164 142.12L123.298 142.176L123.358 142.202C125.892 143.303 128.174 144.294 128.174 146.32C128.174 148.212 126.128 149.474 123.328 149.474C119.717 149.474 116.888 147.311 116.888 144.428ZM154.72 136.575C154.72 140.329 151.228 144.124 146.654 144.124H142.35V150.104H136.691V129.084H146.654C151.228 129.084 154.72 132.822 154.72 136.575ZM148.941 136.575C148.941 133.002 147.376 129.685 144.998 129.685H142.35V143.524H144.998C147.376 143.524 148.941 140.149 148.941 136.575ZM160.558 121.906C158.813 121.906 157.518 123.137 157.518 124.819C157.518 126.501 158.813 127.762 160.558 127.762C162.213 127.762 163.418 126.501 163.418 124.819C163.418 123.137 162.213 121.906 160.558 121.906ZM163.297 128.903L157.638 129.774V144.067H163.297V128.903ZM180.663 132.206H180.03C180.03 130.524 178.917 129.414 177.262 129.414C175.425 129.414 173.921 130.735 173.288 132.837V144.067H167.63V129.774L173.288 128.903V131.456C174.071 129.774 175.486 128.753 177.231 128.753C179.308 128.753 180.663 130.135 180.663 132.206ZM197.637 141.095H196.945C196.072 142.566 194.507 143.407 192.762 143.407C189.842 143.407 188.186 141.215 188.096 136.32H198.089C198.089 131.996 194.898 128.753 190.444 128.753C185.929 128.753 182.317 132.116 182.317 136.53C182.317 141.005 185.989 144.368 191.166 144.368C194.146 144.368 196.704 143.047 197.637 141.095ZM192.852 135.72H188.096C188.126 132.086 189.028 129.353 190.564 129.353C191.948 129.353 192.791 131.696 192.852 135.72Z" fill="#A8D9FF"/>
</g>
<defs>
<clipPath id="clip0_213_374">
<rect width="285" height="280" fill="white"/>
</clipPath>
</defs>
</svg>
