<svg width="204" height="200" viewBox="0 0 204 200" fill="none" xmlns="http://www.w3.org/2000/svg">
<g clip-path="url(#clip0_1994_192)">
<path opacity="0.348656" d="M122.018 151.312L134.458 185.34L133.749 185.598L121.309 151.57L122.018 151.312ZM133.718 134.341L148.438 151.82L147.86 152.304L133.14 134.825L133.718 134.341ZM101.434 168.92H102.189V146.063H101.434V168.92ZM101.434 200H102.189V177.505H101.434V200ZM81.5534 151.313L82.2632 151.57L69.8755 185.597L69.1657 185.34L81.5534 151.313ZM69.8535 134.341L70.4317 134.825L55.7113 152.304L55.1331 151.82L69.8535 134.341ZM30.8679 109.821L30.7364 109.08L53.2832 105.098L53.4147 105.839L30.8679 109.821ZM0.131814 115.251L0 114.509L22.236 110.579L22.3678 111.321L0.131814 115.251ZM20.2097 144.373L19.8325 143.72L51.2945 125.62L51.6717 126.273L20.2097 144.373ZM35.7039 176.144L35.126 175.659L49.6391 158.439L50.217 158.924L35.7039 176.144ZM44.5237 87.2744L8.75963 80.9655L8.89113 80.2238L44.6552 86.5327L44.5237 87.2744ZM59.0174 72.7502L39.1657 61.3214L39.5429 60.6689L59.3946 72.0976L59.0174 72.7502ZM31.7017 57.0293L12.1611 45.7556L12.5389 45.1036L32.0795 56.3773L31.7017 57.0293ZM64.1515 52.8079L40.8273 25.038L41.4062 24.5543L64.7304 52.3242L64.1515 52.8079ZM84.6117 50.9881L76.7849 29.4756L77.4943 29.2185L85.3214 50.7311L84.6117 50.9881ZM73.8308 21.4083L66.1078 0.25769L66.8172 0L74.5402 21.1507L73.8308 21.4083ZM172.756 109.821L150.157 105.839L150.288 105.098L172.887 109.08L172.756 109.821ZM203.44 115.251L181.204 111.321L181.336 110.579L203.572 114.509L203.44 115.251ZM183.362 144.373L151.9 126.273L152.277 125.62L183.739 143.72L183.362 144.373ZM167.867 176.143L153.406 158.923L153.985 158.439L168.446 175.66L167.867 176.143ZM159.048 87.2744L158.916 86.5327L194.68 80.2238L194.812 80.9655L159.048 87.2744ZM144.606 72.7499L144.229 72.098L164.028 60.6692L164.406 61.3212L144.606 72.7499ZM171.87 57.0293L171.492 56.3773L191.032 45.1036L191.41 45.7556L171.87 57.0293ZM139.42 52.8081L138.841 52.3241L162.166 24.5541L162.744 25.0378L139.42 52.8081ZM118.96 50.9881L118.251 50.7311L126.077 29.2185L126.787 29.4756L118.96 50.9881ZM129.741 21.4083L129.031 21.1507L136.754 0L137.464 0.25769L129.741 21.4083ZM101.434 39.0172H102.189V2.76645H101.434V39.0172Z" fill="#384867"/>
<path opacity="0.348656" d="M122.018 151.312L134.458 185.34L133.749 185.598L121.309 151.57L122.018 151.312ZM133.718 134.341L148.438 151.82L147.86 152.304L133.14 134.825L133.718 134.341ZM101.434 168.92H102.189V146.063H101.434V168.92ZM101.434 200H102.189V177.505H101.434V200ZM81.5534 151.313L82.2632 151.57L69.8755 185.597L69.1657 185.34L81.5534 151.313ZM69.8535 134.341L70.4317 134.825L55.7113 152.304L55.1331 151.82L69.8535 134.341ZM30.8679 109.821L30.7364 109.08L53.2832 105.098L53.4147 105.839L30.8679 109.821ZM0.131814 115.251L0 114.509L22.236 110.579L22.3678 111.321L0.131814 115.251ZM20.2097 144.373L19.8325 143.72L51.2945 125.62L51.6717 126.273L20.2097 144.373ZM35.7039 176.144L35.126 175.659L49.6391 158.439L50.217 158.924L35.7039 176.144ZM44.5237 87.2744L8.75963 80.9655L8.89113 80.2238L44.6552 86.5327L44.5237 87.2744ZM59.0174 72.7502L39.1657 61.3214L39.5429 60.6689L59.3946 72.0976L59.0174 72.7502ZM31.7017 57.0293L12.1611 45.7556L12.5389 45.1036L32.0795 56.3773L31.7017 57.0293ZM64.1515 52.8079L40.8273 25.038L41.4062 24.5543L64.7304 52.3242L64.1515 52.8079ZM84.6117 50.9881L76.7849 29.4756L77.4943 29.2185L85.3214 50.7311L84.6117 50.9881ZM73.8308 21.4083L66.1078 0.25769L66.8172 0L74.5402 21.1507L73.8308 21.4083ZM172.756 109.821L150.157 105.839L150.288 105.098L172.887 109.08L172.756 109.821ZM203.44 115.251L181.204 111.321L181.336 110.579L203.572 114.509L203.44 115.251ZM183.362 144.373L151.9 126.273L152.277 125.62L183.739 143.72L183.362 144.373ZM167.867 176.143L153.406 158.923L153.985 158.439L168.446 175.66L167.867 176.143ZM159.048 87.2744L158.916 86.5327L194.68 80.2238L194.812 80.9655L159.048 87.2744ZM144.606 72.7499L144.229 72.098L164.028 60.6692L164.406 61.3212L144.606 72.7499ZM171.87 57.0293L171.492 56.3773L191.032 45.1036L191.41 45.7556L171.87 57.0293ZM139.42 52.8081L138.841 52.3241L162.166 24.5541L162.744 25.0378L139.42 52.8081ZM118.96 50.9881L118.251 50.7311L126.077 29.2185L126.787 29.4756L118.96 50.9881ZM129.741 21.4083L129.031 21.1507L136.754 0L137.464 0.25769L129.741 21.4083ZM101.434 39.0172H102.189V2.76645H101.434V39.0172Z" fill="#384867"/>
<path fill-rule="evenodd" clip-rule="evenodd" d="M62.0796 89.1565C62.0796 87.9553 63.0042 87.0762 64.2509 87.0762C65.4331 87.0762 66.2932 87.9553 66.2932 89.1565C66.2932 90.3577 65.4331 91.2588 64.2509 91.2588C63.0042 91.2588 62.0796 90.3577 62.0796 89.1565ZM62.1655 92.6958L66.2074 92.0737V102.905H62.1655V92.6958ZM80.5246 95.4629V102.905H76.483V94.5401C76.483 93.747 75.9671 93.1462 75.2791 93.1462C74.5052 93.1462 73.7527 93.7683 73.3443 94.7335V102.905H69.3028V92.6961L73.3443 92.0737V93.8327C74.0754 92.7175 75.408 91.9664 76.9348 91.9664C78.9768 91.9664 80.5246 93.468 80.5246 95.4629ZM83.4913 103.163H83.0181C83.0181 105.587 85.6626 107.432 88.8871 107.432C92.499 107.432 94.9066 105.502 94.9066 102.799C94.9066 100.057 92.4199 99.0693 90.1006 98.1482L90.0911 98.1444L90.0734 98.1374C88.1455 97.3677 86.372 96.6596 86.372 95.0556C86.372 93.6184 87.8122 92.6319 89.7903 92.6319C92.0472 92.6319 93.8533 94.0261 93.8533 96.0208H94.3261C94.3261 93.7044 92.0044 91.9881 89.0375 91.9881C85.684 91.9881 83.2116 93.8117 83.2116 96.6429C83.2116 99.4982 85.7197 100.56 87.9745 101.514L88.0702 101.555L88.1125 101.573C89.9231 102.359 91.5527 103.067 91.5527 104.514C91.5527 105.866 90.0911 106.767 88.0915 106.767C85.5122 106.767 83.4913 105.223 83.4913 103.163ZM110.514 97.5539C110.514 100.235 108.02 102.946 104.753 102.946H101.678V107.217H97.6366V92.2029H104.753C108.02 92.2029 110.514 94.8727 110.514 97.5539ZM106.386 97.5539C106.386 95.0014 105.268 92.632 103.57 92.632H101.678V102.517H103.57C105.268 102.517 106.386 100.106 106.386 97.5539ZM114.684 87.0762C113.437 87.0762 112.513 87.9553 112.513 89.1565C112.513 90.3577 113.437 91.2588 114.684 91.2588C115.866 91.2588 116.727 90.3577 116.727 89.1565C116.727 87.9553 115.866 87.0762 114.684 87.0762ZM116.641 92.0737L112.599 92.6958V102.905H116.641V92.0737ZM129.045 94.433H128.593C128.593 93.2319 127.798 92.4387 126.615 92.4387C125.304 92.4387 124.229 93.3822 123.777 94.8838V102.905H119.736V92.6961L123.777 92.0737V93.8973C124.336 92.6961 125.347 91.9666 126.594 91.9666C128.077 91.9666 129.045 92.9535 129.045 94.433ZM141.169 100.782H140.675C140.051 101.833 138.933 102.434 137.687 102.434C135.601 102.434 134.419 100.868 134.354 97.3715H141.492C141.492 94.2833 139.213 91.9663 136.031 91.9663C132.806 91.9663 130.226 94.3684 130.226 97.5216C130.226 100.718 132.85 103.12 136.547 103.12C138.675 103.12 140.503 102.176 141.169 100.782ZM137.751 96.9428H134.354C134.376 94.347 135.02 92.3954 136.117 92.3954C137.106 92.3954 137.708 94.0686 137.751 96.9428Z" fill="#15284C"/>
</g>
<defs>
<clipPath id="clip0_1994_192">
<rect width="203.571" height="200" fill="white"/>
</clipPath>
</defs>
</svg>
