<svg width="373" height="366" viewBox="0 0 373 366" fill="none" xmlns="http://www.w3.org/2000/svg">
<g clip-path="url(#clip0_1403_2602)">
<path opacity="0.348656" d="M223.292 276.901L246.057 339.171L244.76 339.644L221.995 277.374L223.292 276.901ZM244.704 245.844L271.642 277.83L270.584 278.716L243.646 246.73L244.704 245.844ZM185.624 309.124H187.006V267.295H185.624V309.124ZM185.624 366H187.006V324.834H185.624V366ZM149.243 276.902L150.541 277.373L127.872 339.643L126.573 339.172L149.243 276.902ZM127.832 245.844L128.89 246.73L101.952 278.716L100.893 277.83L127.832 245.844ZM56.4881 200.973L56.2474 199.616L97.5081 192.329L97.7488 193.686L56.4881 200.973ZM0.241098 210.909L-0.00012207 209.552L40.6918 202.36L40.933 203.718L0.241098 210.909ZM36.9836 264.202L36.2933 263.008L93.8689 229.885L94.5591 231.08L36.9836 264.202ZM65.3381 322.344L64.2805 321.456L90.8395 289.943L91.897 290.83L65.3381 322.344ZM81.4783 159.712L16.03 148.167L16.2707 146.81L81.719 158.355L81.4783 159.712ZM108.002 133.133L71.6731 112.218L72.3634 111.024L108.692 131.939L108.002 133.133ZM58.0139 104.364L22.2546 83.7327L22.9461 82.5397L58.7053 103.171L58.0139 104.364ZM117.397 96.6385L74.7139 45.8195L75.7732 44.9344L118.456 95.7533L117.397 96.6385ZM154.839 93.3083L140.516 53.9403L141.815 53.4699L156.138 92.8379L154.839 93.3083ZM135.11 39.1773L120.977 0.471572L122.275 0L136.408 38.7057L135.11 39.1773ZM316.143 200.973L274.787 193.686L275.028 192.329L316.383 199.616L316.143 200.973ZM372.295 210.909L331.603 203.718L331.844 202.36L372.536 209.552L372.295 210.909ZM335.552 264.202L277.977 231.08L278.667 229.885L336.242 263.008L335.552 264.202ZM307.197 322.342L280.733 290.829L281.792 289.944L308.256 321.457L307.197 322.342ZM291.057 159.712L290.817 158.355L356.265 146.81L356.506 148.167L291.057 159.712ZM264.629 133.132L263.938 131.939L300.171 111.025L300.863 112.218L264.629 133.132ZM314.522 104.364L313.83 103.171L349.589 82.5397L350.28 83.7327L314.522 104.364ZM255.138 96.6388L254.079 95.7531L296.763 44.9341L297.822 45.8192L255.138 96.6388ZM217.697 93.3083L216.398 92.8379L230.721 53.4699L232.02 53.9403L217.697 93.3083ZM237.426 39.1773L236.127 38.7057L250.26 0L251.559 0.471572L237.426 39.1773ZM185.624 71.4015H187.006V5.0626H185.624V71.4015Z" fill="white"/>
<path opacity="0.7" d="M223.292 276.901L246.057 339.171L244.76 339.644L221.995 277.374L223.292 276.901ZM244.704 245.844L271.642 277.83L270.584 278.716L243.646 246.73L244.704 245.844ZM185.624 309.124H187.006V267.295H185.624V309.124ZM185.624 366H187.006V324.834H185.624V366ZM149.243 276.902L150.541 277.373L127.872 339.643L126.573 339.172L149.243 276.902ZM127.832 245.844L128.89 246.73L101.952 278.716L100.893 277.83L127.832 245.844ZM56.4881 200.973L56.2474 199.616L97.5081 192.329L97.7488 193.686L56.4881 200.973ZM0.241098 210.909L-0.00012207 209.552L40.6918 202.36L40.933 203.718L0.241098 210.909ZM36.9836 264.202L36.2933 263.008L93.8689 229.885L94.5591 231.08L36.9836 264.202ZM65.3381 322.344L64.2805 321.456L90.8395 289.943L91.897 290.83L65.3381 322.344ZM81.4783 159.712L16.03 148.167L16.2707 146.81L81.719 158.355L81.4783 159.712ZM108.002 133.133L71.6731 112.218L72.3634 111.024L108.692 131.939L108.002 133.133ZM58.0139 104.364L22.2546 83.7327L22.9461 82.5397L58.7053 103.171L58.0139 104.364ZM117.397 96.6385L74.7139 45.8195L75.7732 44.9344L118.456 95.7533L117.397 96.6385ZM154.839 93.3083L140.516 53.9403L141.815 53.4699L156.138 92.8379L154.839 93.3083ZM135.11 39.1773L120.977 0.471572L122.275 0L136.408 38.7057L135.11 39.1773ZM316.143 200.973L274.787 193.686L275.028 192.329L316.383 199.616L316.143 200.973ZM372.295 210.909L331.603 203.718L331.844 202.36L372.536 209.552L372.295 210.909ZM335.552 264.202L277.977 231.08L278.667 229.885L336.242 263.008L335.552 264.202ZM307.197 322.342L280.733 290.829L281.792 289.944L308.256 321.457L307.197 322.342ZM291.057 159.712L290.817 158.355L356.265 146.81L356.506 148.167L291.057 159.712ZM264.629 133.132L263.938 131.939L300.171 111.025L300.863 112.218L264.629 133.132ZM314.522 104.364L313.83 103.171L349.589 82.5397L350.28 83.7327L314.522 104.364ZM255.138 96.6388L254.079 95.7531L296.763 44.9341L297.822 45.8192L255.138 96.6388ZM217.697 93.3083L216.398 92.8379L230.721 53.4699L232.02 53.9403L217.697 93.3083ZM237.426 39.1773L236.127 38.7057L250.26 0L251.559 0.471572L237.426 39.1773ZM185.624 71.4015H187.006V5.0626H185.624V71.4015Z" fill="white"/>
<path fill-rule="evenodd" clip-rule="evenodd" d="M113.606 163.156C113.606 160.958 115.298 159.349 117.579 159.349C119.743 159.349 121.317 160.958 121.317 163.156C121.317 165.354 119.743 167.003 117.579 167.003C115.298 167.003 113.606 165.354 113.606 163.156ZM113.763 169.633L121.16 168.495V188.317H113.763V169.633ZM147.36 174.697V188.317H139.964V173.008C139.964 171.557 139.02 170.457 137.761 170.457C136.345 170.457 134.968 171.596 134.22 173.362V188.317H126.824V169.634L134.22 168.495V171.714C135.558 169.673 137.997 168.298 140.791 168.298C144.528 168.298 147.36 171.046 147.36 174.697ZM152.789 188.789H151.924C151.924 193.224 156.763 196.6 162.664 196.6C169.273 196.6 173.679 193.068 173.679 188.121C173.679 183.104 169.129 181.297 164.884 179.611L164.867 179.604L164.835 179.591C161.307 178.183 158.061 176.887 158.061 173.952C158.061 171.321 160.697 169.516 164.317 169.516C168.447 169.516 171.752 172.068 171.752 175.718H172.617C172.617 171.479 168.368 168.338 162.939 168.338C156.802 168.338 152.278 171.675 152.278 176.856C152.278 182.082 156.867 184.024 160.994 185.771L161.169 185.845L161.246 185.879C164.56 187.318 167.542 188.613 167.542 191.261C167.542 193.734 164.867 195.384 161.208 195.384C156.488 195.384 152.789 192.557 152.789 188.789ZM202.241 178.523C202.241 183.43 197.677 188.391 191.698 188.391H186.071V196.207H178.675V168.731H191.698C197.677 168.731 202.241 173.617 202.241 178.523ZM194.687 178.523C194.687 173.853 192.641 169.516 189.534 169.516H186.071V187.607H189.534C192.641 187.607 194.687 183.194 194.687 178.523ZM209.872 159.349C207.591 159.349 205.899 160.958 205.899 163.156C205.899 165.354 207.591 167.003 209.872 167.003C212.036 167.003 213.61 165.354 213.61 163.156C213.61 160.958 212.036 159.349 209.872 159.349ZM213.452 168.495L206.056 169.633V188.317H213.452V168.495ZM236.152 172.812H235.325C235.325 170.614 233.87 169.163 231.706 169.163C229.306 169.163 227.339 170.889 226.513 173.637V188.317H219.117V169.634L226.513 168.495V171.832C227.536 169.634 229.385 168.299 231.666 168.299C234.381 168.299 236.152 170.105 236.152 172.812ZM258.34 184.431H257.435C256.294 186.354 254.248 187.453 251.967 187.453C248.151 187.453 245.986 184.588 245.868 178.19H258.93C258.93 172.538 254.76 168.298 248.938 168.298C243.036 168.298 238.315 172.694 238.315 178.464C238.315 184.313 243.115 188.709 249.881 188.709C253.776 188.709 257.121 186.982 258.34 184.431ZM252.085 177.405H245.868C245.908 172.655 247.087 169.083 249.095 169.083C250.904 169.083 252.006 172.145 252.085 177.405Z" fill="white"/>
</g>
<defs>
<clipPath id="clip0_1403_2602">
<rect width="372.536" height="366" fill="white"/>
</clipPath>
</defs>
</svg>
