<svg width="128" height="34" viewBox="0 0 128 34" fill="none" xmlns="http://www.w3.org/2000/svg">
<path fill-rule="evenodd" clip-rule="evenodd" d="M0 3.87264C0 1.92528 1.49893 0.5 3.52011 0.5C5.43674 0.5 6.83111 1.92528 6.83111 3.87264C6.83111 5.82 5.43674 7.2809 3.52011 7.2809C1.49893 7.2809 0 5.82 0 3.87264ZM0.139227 9.6104L6.69188 8.60186V26.1622H0.139227V9.6104ZM29.9028 14.0965V26.1623H23.3506V12.6005C23.3506 11.3146 22.5142 10.3407 21.3988 10.3407C20.1442 10.3407 18.9242 11.3492 18.2622 12.9139V26.1623H11.7101V9.61098L18.2622 8.60194V11.4535C19.4475 9.64559 21.6079 8.42791 24.083 8.42791C27.3935 8.42791 29.9028 10.8622 29.9028 14.0965ZM34.7124 26.5802H33.9453C33.9453 30.5096 38.2325 33.5 43.4601 33.5C49.3156 33.5 53.2187 30.3711 53.2187 25.989C53.2187 21.5441 49.1873 19.9431 45.4273 18.4499L45.4119 18.4438L45.3832 18.4323C42.2577 17.1845 39.3825 16.0366 39.3825 13.4362C39.3825 11.1062 41.7174 9.5069 44.9243 9.5069C48.5832 9.5069 51.5112 11.7672 51.5112 15.0009H52.2777C52.2777 11.2456 48.5138 8.46325 43.7039 8.46325C38.2671 8.46325 34.259 11.4196 34.259 16.0094C34.259 20.6385 38.325 22.3595 41.9805 23.9067L42.1356 23.9724L42.2042 24.0022C45.1395 25.2771 47.7814 26.4245 47.7814 28.7708C47.7814 30.9614 45.4119 32.4228 42.1703 32.4228C37.9887 32.4228 34.7124 29.9188 34.7124 26.5802ZM78.5214 17.4863C78.5214 21.8329 74.478 26.2278 69.1815 26.2278H64.1966V33.1522H57.6445V8.81146H69.1815C74.478 8.81146 78.5214 13.1397 78.5214 17.4863ZM71.8295 17.4863C71.8295 13.3483 70.0169 9.50706 67.2639 9.50706H64.1966V25.5332H67.2639C70.0169 25.5332 71.8295 21.6242 71.8295 17.4863ZM85.2819 0.5C83.2607 0.5 81.7617 1.92528 81.7617 3.87264C81.7617 5.82 83.2607 7.2809 85.2819 7.2809C87.1985 7.2809 88.5934 5.82 88.5934 3.87264C88.5934 1.92528 87.1985 0.5 85.2819 0.5ZM88.4536 8.60186L81.901 9.6104V26.1622H88.4536V8.60186ZM108.563 12.4268H107.83C107.83 10.4795 106.541 9.1936 104.625 9.1936C102.498 9.1936 100.756 10.7232 100.024 13.1575V26.1621H93.4716V9.61087L100.024 8.60181V11.5582C100.93 9.61087 102.568 8.4283 104.589 8.4283C106.994 8.4283 108.563 10.0281 108.563 12.4268ZM127.219 22.7198H126.417C125.407 24.4234 123.594 25.3974 121.573 25.3974C118.192 25.3974 116.275 22.8592 116.171 17.1907H127.742C127.742 12.1841 124.047 8.4278 118.89 8.4278C113.661 8.4278 109.479 12.322 109.479 17.4339C109.479 22.6155 113.731 26.5097 119.726 26.5097C123.176 26.5097 126.139 24.9801 127.219 22.7198ZM121.678 16.4956H116.171C116.205 12.2874 117.25 9.12339 119.029 9.12339C120.632 9.12339 121.608 11.8361 121.678 16.4956Z" fill="#15284C"/>
</svg>
